<?xml version="1.0" standalone="no"?>
<!DOCTYPE svg PUBLIC "-//W3C//DTD SVG 20010904//EN"
 "http://www.w3.org/TR/2001/REC-SVG-20010904/DTD/svg10.dtd">
<svg version="1.0" xmlns="http://www.w3.org/2000/svg"
 width="1067.000000pt" height="1067.000000pt" viewBox="0 0 1067.000000 1067.000000"
 preserveAspectRatio="xMidYMid meet">

<g transform="translate(0.000000,1067.000000) scale(0.100000,-0.100000)"
fill="#000000" stroke="none">
<path d="M2168 9870 l-926 -5 74 -64 c120 -105 243 -299 303 -478 24 -70 104
-378 146 -555 l27 -117 2302 -3 c1851 -2 2305 -6 2324 -16 34 -20 29 -75 -28
-281 -479 -1754 -1355 -3475 -2633 -5173 -549 -730 -1242 -1548 -1854 -2189
-70 -74 -141 -149 -158 -167 -29 -33 -30 -33 -5 -24 185 71 1068 519 1665 844
619 338 880 499 1303 801 1011 723 1972 1668 2692 2648 975 1329 1645 2864
1978 4534 22 110 42 212 45 228 l4 27 -3166 -2 c-1741 -2 -3583 -5 -4093 -8z"/>
</g>
</svg>
